<svg width="32" height="32" viewBox="0 0 32 32" fill="none" xmlns="http://www.w3.org/2000/svg">
  <rect width="32" height="32" rx="8" fill="currentColor"/>
  <path d="M8 12V10C8 9.44772 8.44772 9 9 9H15C15.5523 9 16 9.44772 16 10V12M8 12V22C8 22.5523 8.44772 23 9 23H15C15.5523 23 16 22.5523 16 22V20M8 12H16M12 16L20 16M20 16L18 14M20 16L18 18" stroke="white" stroke-width="2" stroke-linecap="round" stroke-linejoin="round"/>
  <path d="M20 20V22C20 22.5523 20.4477 23 21 23H27C27.5523 23 28 22.5523 28 22V12C28 11.4477 27.5523 11 27 11H21C20.4477 11 20 11.4477 20 12V14" stroke="white" stroke-width="2" stroke-linecap="round" stroke-linejoin="round"/>
</svg>